<?xml version="1.0" encoding="utf-8"?>
<!-- Generator: Adobe Illustrator 26.0.0, SVG Export Plug-In . SVG Version: 6.00 Build 0)  -->
<svg version="1.1" id="Camada_1" xmlns="http://www.w3.org/2000/svg" xmlns:xlink="http://www.w3.org/1999/xlink" x="0px" y="0px"
	 viewBox="0 0 978 1742" style="enable-background:new 0 0 978 1742;" xml:space="preserve">
<g>
	<path d="M473.4,522.8c-1.9,8.9-1.9,16.8-2.7,24.5c-1.4,13.9-2.9,27.7-3.9,41.7c-0.6,8.2-1.4,16.4-2.1,24.6
		c-1.2,14.6-2.5,29.1-3.8,43.7c-0.8,9-1.5,18-2.3,27.1c-1.2,13.9-2.8,27.8-3.8,41.7c-0.6,8.5-1.3,17.1-2.1,25.6
		c-1.3,14.2-2.5,28.4-3.8,42.7c-0.8,9.2-1.5,18.4-2.3,27.6c-1.2,13.7-2.2,27.5-3.7,41.2c-0.9,8.6-1.4,17.4-2.2,26.1
		c-1.3,14.4-2.5,28.8-3.8,43.2c-0.8,8.8-1.5,17.7-2.3,26.6c-1.2,13.7-1.9,27.5-3.8,41.2c-0.6,4.5-0.5,9.2-1,13.8
		c-1.7,17.3-2.5,34.8-4.3,52.1c-1.1,11.1-2,22.2-3,33.4c-1.4,15.5-2.8,31.1-4.1,46.6c-0.9,11.1-1.9,22.2-2.9,33.4
		c-1.4,15.5-2.8,31.1-4.1,46.6c-0.9,11-1.9,21.9-2.9,32.9c-1.4,15.7-2.9,31.4-4.1,47.1c-0.9,11-1.9,21.9-2.9,32.9
		c-1.5,15.7-2.7,31.4-4.1,47.1c-1,11-1.9,21.9-2.9,32.9c-1.5,16.8-3.4,33.6-4.9,50.4c-0.8,9.2-1.3,18.4-2.1,27.6
		c-1.2,13.7-2.9,27.4-3.8,41.2c-0.6,8.2-1.4,16.4-2.1,24.6c-1.2,14.6-2.1,29.2-4,43.7c-0.3,2.5-0.2,5,0,7.5c0.2,4.2-1.9,5.6-5.8,5
		c-10.9-1.7-21.9-2.1-32.8-3c-16.5-1.5-32.9-3.7-49.4-4.8c-9.4-0.6-18.7-1.5-28-2.3c-13.2-1.2-26.5-2.2-39.7-3.7
		c-8.5-0.9-17-1.5-25.6-2.2c-14.6-1.2-29.1-2.4-43.7-4c-9.3-1-18.7-1.3-28.1-2.1c-13.2-1.2-26.4-2.9-39.7-3.8
		c-8.2-0.6-16.4-1.4-24.6-2.1c-14.6-1.2-29.1-2.2-43.7-3.9c-4.2-0.5-8.5-0.7-12.8-1c-2.8-0.2-2.9-1.6-2.6-3.5
		c1.6-10.4,2-20.9,3-31.3c1.2-13.4,2.9-26.8,3.8-40.2c0.6-8.7,1.4-17.4,2.1-26.1c1.2-15.4,2.3-30.8,4-46.2c1.1-10,1.3-20.1,2.1-30.1
		c1.2-14.9,2.7-29.8,3.9-44.7c0.4-4.8,0.4-9.5,0.9-14.3c1.2-11.1,1.3-22.4,2.2-33.6c1.2-13.4,2.2-26.9,3.1-40.4
		c0.9-13.6,2-27.2,3-40.9c1-13.6,2.1-27.2,3-40.9c0.9-14.5,2.2-28.9,3-43.4c0.8-14.1,2-28.2,3-42.4c1-14.6,2.1-29.2,3-43.9
		c0.6-9.2,1.1-18.4,2-27.6c1.7-16.4,1.7-32.8,3.8-49.2c0.7-5.4,0.4-10.8,0.9-16.3c1.2-12.3,1.2-24.7,2.2-37.1
		c1.2-14.9,2-29.9,3.1-44.9c1-13.6,2-27.2,2.9-40.9c1-15.7,3.1-31.4,3.8-47.2c0.5-11.5,1.7-23,2.3-34.6c0.8-14.9,2.6-29.8,3.8-44.7
		c0.4-4.8,0.4-9.5,0.9-14.3c1.2-10.8,1.3-21.7,2.2-32.6c1.5-16.7,2.9-33.4,4.1-50.2c0.8-11.3,2.1-22.6,3-33.9
		c1.3-16.5,3.3-33,4.9-49.5c0.9-9.3,1.2-18.7,2.1-28.1c1.2-12.2,2.7-24.4,3.9-36.7c0.8-8.2,1.1-16.4,2.1-24.6
		c1.4-11.7,2.2-23.5,3.7-35.2c1-8,1.5-16,2.3-24c1.1-11.2,2.8-22.4,3.7-33.7c0.6-7.2,1.4-14.4,2.2-21.5c1.3-11.2,2.4-22.5,3.8-33.7
		c0.8-6.8,1.4-13.7,2.2-20.5c1.7-13.8,2.2-27.7,4.8-41.4c1.3-6.6,1.4-13.4,2.2-20c1.2-9.9,2.9-19.7,3.7-29.7
		c0.8-9.3,2.1-18.6,3.3-27.8c1.2-9.7,2.6-19.4,3.8-29.2c1.1-8.9,2-17.9,3.2-26.8c1.2-9.4,2.6-18.8,3.8-28.2c1.1-8.9,2-17.9,3.2-26.8
		c1.5-11.3,3.1-22.7,4.8-34c0.4-2.9,1-6.1,0.9-8.7c-0.3-5.4,2.5-5.3,5.9-4.6c7.1,1.4,14-0.4,21.1-0.2c16.8,0.4,33.5-0.6,50.3-1.2
		c12.4-0.4,24.9,0.3,37.3-0.8c15.9-1.4,31.9,0.2,47.8-1.1c14.3-1.2,28.5-0.4,42.8-0.8c76.7-1.9,153.5-1.1,230.2-0.7
		c21.7,0.1,43.6-0.4,65.3,0.9c14.8,0.9,29.6-0.3,44.3,0.9c12.6,1.1,25.3-0.2,37.8,1c11,1.1,21.9-0.2,32.8,1
		c12.8,1.4,25.5,0.4,38.3,0.8c6.2,0.2,7.1,1.3,8,7.5c1.9,12.4,4.2,24.8,6.3,37.1c2.2,13.2,4.5,26.3,6.7,39.5c2.2,13,4.5,26,6.6,39
		c1.6,9.5,2.9,19,4.4,28.5c1.9,11.9,3.9,23.8,5.7,35.7c1.5,10.2,2.8,20.4,4.3,30.6c1.5,10.2,3.3,20.3,4.8,30.4
		c1.5,10.5,2.8,21.1,4.2,31.6c1.5,11.2,3.3,22.3,4.8,33.4c1.2,8.6,2.1,17.2,3.2,25.8c1.2,9.4,2.6,18.8,3.8,28.2
		c1.1,9.1,2.1,18.2,3.2,27.3c1.2,10.2,2.6,20.4,3.8,30.7c0.8,6.8,1.4,13.7,2.2,20.6c1.3,10.9,2.6,21.8,3.9,32.7
		c0.8,7,1.4,14,2.1,21.1c1.3,12.1,2.9,24.1,3.8,36.2c0.6,7.5,1.4,15,2.2,22.6c1.4,13.2,2.9,26.4,3.9,39.7c0.6,8.2,1.4,16.4,2.1,24.6
		c1.3,14.6,2.4,29.1,3.9,43.7c0.9,9,1.4,18,2.1,27.1c1.4,16.4,2.1,32.8,4,49.2c0.5,4.6,0.5,9.2,0.9,13.8c1.1,12,1.2,24.1,2.2,36.1
		c1.2,14.8,2.1,29.6,3.1,44.4c0.6,9.9,1.2,19.7,1.9,29.6c1.2,15.8,2.1,31.6,3,47.4c0.6,10.2,1.4,20.4,2,30.6c1,16.8,2.1,33.6,3,50.4
		c0.6,10.5,1.4,21,2,31.6c1,16.5,2.1,32.9,3,49.4c0.6,10.5,1.4,21,2,31.6c1,16.5,2.1,32.9,3,49.4c0.5,10,1.4,20,2,30.1
		c1,15.3,2.1,30.6,3,45.9c0.5,9.7,1.3,19.4,2,29.1c1,14.6,2,29.2,3,43.9c0.9,13.5,2,26.9,3,40.4c1.3,17.9,2.7,35.8,4,53.7
		c0.9,12.6,1.9,25.3,3,37.9c1,12.3,1.9,24.6,3,36.9c1.4,16,2.6,32.1,4,48.2c1.3,15.1,3,30.1,3.9,45.2c0,0.2,0,0.3,0,0.5
		c1.8,14.1,3.6,11.9-11.4,13.3c-13.9,1.3-27.8,2.7-41.7,3.9c-8.7,0.8-17.4,1.4-26.1,2.1c-14.7,1.1-29.4,2.5-44.2,3.8
		c-9.3,0.8-18.7,1.5-28.1,2.2c-14.2,1.2-28.4,2.6-42.7,3.9c-8.8,0.8-17.7,1.4-26.5,2.1c-14.6,1.1-29.1,2.4-43.7,3.8
		c-8.7,0.8-17.4,1.4-26.1,2.1c-15.1,1.2-30.1,2.7-45.2,3.8c-9.7,0.7-19.3,2.4-29.1,2.1c-2.7-0.1-5.1,1.2-7.8,1.2c-2.9,0-4-0.9-4.2-4
		c-1.2-16.4-2.3-32.8-4-49.1c-1.5-14-2.7-28.1-4-42.2c-1.4-15.8-3.4-31.6-4.9-47.4c-0.9-9-1.2-18.1-2.1-27.1
		c-1.2-12.6-2.7-25.1-3.9-37.7c-0.8-8.8-1.1-17.7-2.1-26.6c-1.5-12.4-2-24.8-3.8-37.2c-1.3-8.8-1.4-17.7-2.2-26.6
		c-1.2-12.7-2.9-25.4-3.8-38.2c-0.6-8.4-1.3-16.7-2.2-25.1c-1.3-13.4-2.7-26.8-3.9-40.2c-0.7-7.9-1.4-15.7-2.1-23.6
		c-1.1-13.6-2.1-27.1-3.9-40.7c-1.2-9-1.3-18.1-2.2-27.1c-1.2-12.6-2.9-25.1-3.8-37.7c-0.6-8.2-1.3-16.4-2.1-24.6
		c-1.4-13.5-2.5-27.1-3.8-40.7c-0.8-8.7-1.5-17.4-2.4-26c-1.2-12.6-2.1-25.1-3.6-37.7c-1-8.1-1.5-16.4-2.2-24.6
		c-1.1-13.6-2.6-27.1-3.8-40.7c-0.8-8.5-1.5-17-2.2-25.6c-1.2-13.1-2.9-26.1-3.8-39.2c-0.6-7.9-1.4-15.7-2.1-23.6
		c-1.2-13.6-2.4-27.1-3.8-40.7c-0.9-8.5-1.5-17-2.2-25.6c-1.2-13.1-2.8-26.1-3.8-39.2c-0.6-8.2-1.3-16.4-2.1-24.6
		c-1.4-13.5-3-27.1-3.8-40.7c-0.5-8.6-1.6-17-2.2-25.6c-1.1-13.1-2.6-26.1-3.8-39.2c-0.8-8.5-1.3-17.1-2.1-25.6
		C475.5,538.2,475.6,530.9,473.4,522.8z"/>
</g>
</svg>
